# xmcd
#
# Track frame offsets:
#	150
#	9950
#	21000
#	33075
#	41300
#	49687
#	62450
#	71825
#	79425
#	88537
#	98412
#	110925
#
# Disc length: 1627 seconds
#
# Revision: 1
# Processed by: cddbd v1.4PL0 Copyright (c) Steve Scherf et al.
# Submitted via: MusicWizard 6.0.0
#
DISCID=8a06590c
DTITLE=Johnny Cash and Jerry Lee Lewis - Country Comeback
DYEAR=1991
DGENRE=Country
TTITLE0=Rock Island Line  (Johnny Cash)
TTITLE1=Oh, Lonesome Me  (Johnny Cash)
TTITLE2=I Walk The Line  (Johnny Cash)
TTITLE3=The Wreck Of The Old 97  (Johnny Cash)
TTITLE4=Country Boy  (Johnny Cash)
TTITLE5=Folsom Prison Blues  (Johnny Cash)
TTITLE6=One Minute Past Eternity  (Jerry Lee Lewis)
TTITLE7=All Around The Watertank  (Jerry Lee Lewis)
TTITLE8=Old Black Joe  (Jerry Lee Lewis)
TTITLE9=You Are My Sunshine  (Jerry Lee Lewis)
TTITLE10=Deep Em Blues  (Jerry Lee Lewis)
TTITLE11=Carry Me Back To Old Virginia  (Jerry Lee Lewis)
EXTD=(c)1991 Bellaphon Germany\nRerelease of Bellaphon/SUN LP\nupc 4003099917125
EXTT0=
EXTT1=
EXTT2=
EXTT3=
EXTT4=
EXTT5=
EXTT6=
EXTT7=
EXTT8=
EXTT9=
EXTT10=
EXTT11=
PLAYORDER=
